<svg xmlns="http://www.w3.org/2000/svg" xmlns:xlink="http://www.w3.org/1999/xlink" viewBox="0 0 17.63 13.47"><defs><style>.cls-1,.cls-3{fill:none;}.cls-2{clip-path:url(#clip-path);}.cls-3{stroke:gray;stroke-linecap:round;stroke-linejoin:round;}</style><clipPath id="clip-path" transform="translate(-0.19 -3.14)"><rect class="cls-1" width="18" height="20"/></clipPath></defs><g id="Layer_2" data-name="Layer 2"><g id="Layer_1-2" data-name="Layer 1"><g class="cls-2"><g id="Vehicles_icon" data-name="Vehicles icon"><g id="Group_41" data-name="Group 41"><line id="Line_10" data-name="Line 10" class="cls-3" x1="0.5" y1="5.77" x2="17.13" y2="5.77"/><path id="Path_16" data-name="Path 16" class="cls-3" d="M16.12,13.74v1.78a.58.58,0,0,1-.59.59H13.75a.58.58,0,0,1-.59-.59V13.74" transform="translate(-0.19 -3.14)"/><path id="Path_17" data-name="Path 17" class="cls-3" d="M4.84,13.74v1.78a.58.58,0,0,1-.59.59H2.47a.58.58,0,0,1-.59-.59V13.74" transform="translate(-0.19 -3.14)"/><line id="Line_11" data-name="Line 11" class="cls-3" x1="3.97" y1="8.25" x2="5.21" y2="8.25"/><line id="Line_12" data-name="Line 12" class="cls-3" x1="12.41" y1="8.25" x2="13.65" y2="8.25"/><path id="Path_18" data-name="Path 18" class="cls-3" d="M16.12,9,13.91,4a.6.6,0,0,0-.55-.36H4.64A.6.6,0,0,0,4.09,4L1.88,9v4.75H16.12Z" transform="translate(-0.19 -3.14)"/></g></g></g></g></g></svg>