<?xml version="1.0" encoding="UTF-8" standalone="no"?>
<!DOCTYPE svg PUBLIC "-//W3C//DTD SVG 1.1//EN" "http://www.w3.org/Graphics/SVG/1.1/DTD/svg11.dtd">
<!-- Created with Vectornator (http://vectornator.io/) -->
<svg height="100%" stroke-miterlimit="10" style="fill-rule:nonzero;clip-rule:evenodd;stroke-linecap:round;stroke-linejoin:round;" version="1.1" viewBox="0 0 5120 2880" width="100%" xml:space="preserve" xmlns="http://www.w3.org/2000/svg" xmlns:vectornator="http://vectornator.io" xmlns:xlink="http://www.w3.org/1999/xlink">
<defs>
<path d="M5120-1.51981e-13L5120 2880L2.92908e-13 2880L-2.39385e-13 1.3873e-13L5120-1.51981e-13Z" id="Fill"/>
<linearGradient gradientTransform="matrix(1.33333 -9.97534e-18 -9.97534e-18 1.33333 -6.29168e-13 9.78187e-13)" gradientUnits="userSpaceOnUse" id="LinearGradient" x1="1927.99" x2="1911.12" y1="404.047" y2="2169.63">
<stop offset="0.400115" stop-color="#1d1d1d"/>
<stop offset="1" stop-color="#242e30"/>
</linearGradient>
<linearGradient gradientTransform="matrix(1.35052 -0.202294 0.211657 1.34908 -268.165 185.386)" gradientUnits="userSpaceOnUse" id="LinearGradient_2" x1="1792.73" x2="2673.2" y1="974.815" y2="1837.46">
<stop offset="0" stop-color="#1d1d1d"/>
<stop offset="1" stop-color="#376b77"/>
</linearGradient>
<linearGradient gradientTransform="matrix(0.696778 0.712747 -0.707897 0.701705 1985.57 -872.623)" gradientUnits="userSpaceOnUse" id="LinearGradient_3" x1="2721.62" x2="4317.09" y1="993.168" y2="3042.49">
<stop offset="0" stop-color="#1d1d1d"/>
<stop offset="1" stop-color="#376b77"/>
</linearGradient>
<linearGradient gradientTransform="matrix(-0.611152 0.606927 -0.611152 -0.606927 4397.6 750.869)" gradientUnits="userSpaceOnUse" id="LinearGradient_4" x1="1250.95" x2="2998.89" y1="-205.347" y2="4740.51">
<stop offset="0" stop-color="#1d1d1d"/>
<stop offset="1" stop-color="#376b77"/>
</linearGradient>
<linearGradient gradientTransform="matrix(-0.270507 0.268637 -0.270507 -0.268637 3371.63 1033.04)" gradientUnits="userSpaceOnUse" id="LinearGradient_5" x1="1529.74" x2="3641.62" y1="390.642" y2="8825.23">
<stop offset="0" stop-color="#1d1d1d"/>
<stop offset="1" stop-color="#376b77"/>
</linearGradient>
<linearGradient gradientTransform="matrix(1.00537 1.34737e-17 1.30341e-17 1.00537 627.463 172.179)" gradientUnits="userSpaceOnUse" id="LinearGradient_6" x1="1641.21" x2="1637.56" y1="704.771" y2="1233.87">
<stop offset="3.49553e-05" stop-color="#fddf19"/>
<stop offset="1" stop-color="#e94420"/>
</linearGradient>
<linearGradient gradientTransform="matrix(1.00537 0 0 1.00537 627.463 172.179)" gradientUnits="userSpaceOnUse" id="LinearGradient_7" x1="1656.3" x2="1659.28" y1="847.753" y2="991.669">
<stop offset="0.00426454" stop-color="#fde019"/>
<stop offset="1" stop-color="#e94420"/>
</linearGradient>
<linearGradient gradientTransform="matrix(1.00537 0 0 1.00537 627.463 172.179)" gradientUnits="userSpaceOnUse" id="LinearGradient_8" x1="1920.11" x2="1922.25" y1="2323.22" y2="1074.46">
<stop offset="0" stop-color="#00d8da"/>
<stop offset="1" stop-color="#004a69"/>
</linearGradient>
<linearGradient gradientTransform="matrix(1.00537 0 0 1.00537 627.463 172.179)" gradientUnits="userSpaceOnUse" id="LinearGradient_9" x1="1919.95" x2="1919.51" y1="263.097" y2="1238.16">
<stop offset="0" stop-color="#00d8da"/>
<stop offset="1" stop-color="#004a69"/>
</linearGradient>
</defs>
<path d="M0 0L5120 0L5120 2880L0 2880L0 0Z" fill="#ffffff" fill-rule="nonzero" opacity="1" stroke="none"/>
<clipPath id="ArtboardFrame">
<rect height="2880" width="5120" x="0" y="0"/>
</clipPath>
<g clip-path="url(#ArtboardFrame)" id="GNTV-Landing-Page" vectornator:layerName="GNTV Landing Page">
<g opacity="1" vectornator:layerName="BG Gradient">
<use fill="url(#LinearGradient)" fill-rule="nonzero" stroke="none" xlink:href="#Fill"/>
<mask height="2880.2" id="StrokeMask" maskUnits="userSpaceOnUse" width="5120.2" x="-0.1" y="-0.1">
<rect fill="#ffffff" height="2880.2" stroke="none" width="5120.2" x="-0.1" y="-0.1"/>
<use fill="#000000" fill-rule="evenodd" stroke="none" xlink:href="#Fill"/>
</mask>
<use fill="none" mask="url(#StrokeMask)" stroke="#000000" stroke-linecap="butt" stroke-linejoin="round" stroke-width="0.2" xlink:href="#Fill"/>
</g>
<g opacity="1" vectornator:layerName="BG Circles">
<path d="M1261.04 306.193C1786.98-410.247 2794.12-564.681 3510.56-38.7442C4227 487.192 4381.44 1494.34 3855.5 2210.78C3329.56 2927.22 2322.42 3081.65 1605.98 2555.71C889.539 2029.78 735.106 1022.63 1261.04 306.193Z" fill="url(#LinearGradient_2)" fill-rule="nonzero" opacity="1" stroke="none" vectornator:layerName="BG Oval 1"/>
<path d="M2567.5 83.9246C3216.2 89.0239 3737.93 619.026 3732.83 1267.72C3727.73 1916.41 3197.73 2438.14 2549.04 2433.04C1900.35 2427.95 1378.61 1897.94 1383.71 1249.25C1388.81 600.56 1918.81 78.8253 2567.5 83.9246Z" fill="url(#LinearGradient_3)" fill-rule="nonzero" opacity="1" stroke="none" vectornator:layerName="BG Oval 2"/>
<path d="M3575 1260.21C3575 1820.78 3120.57 2275.21 2560 2275.21C1999.43 2275.21 1545 1820.78 1545 1260.21C1545 699.645 1999.43 245.214 2560 245.214C3120.57 245.214 3575 699.645 3575 1260.21Z" fill="url(#LinearGradient_4)" fill-rule="nonzero" opacity="1" stroke="none" vectornator:layerName="BG Oval 3"/>
<path d="M3007.53 1258.48C3007.53 1506.6 2806.39 1707.74 2558.27 1707.74C2310.15 1707.74 2109.01 1506.6 2109.01 1258.48C2109.01 1010.37 2310.15 809.227 2558.27 809.227C2806.39 809.227 3007.53 1010.37 3007.53 1258.48Z" fill="url(#LinearGradient_5)" fill-rule="nonzero" opacity="1" stroke="none" vectornator:layerName="BG Oval 4"/>
<path d="M4797.38 3383.43C4797.38 4628.53 3795.67 5637.88 2560 5637.88C1324.33 5637.88 322.615 4628.53 322.615 3383.43C322.615 2138.33 1324.33 1128.98 2560 1128.98C3795.67 1128.98 4797.38 2138.33 4797.38 3383.43Z" fill="#004a69" fill-rule="nonzero" opacity="0.301417" stroke="none" vectornator:blendMode="overlay" vectornator:layerName="BG Oval 5"/>
</g>
<g opacity="1" vectornator:layerName="GNTV">
<g opacity="1" vectornator:layerName="TV">
<path d="M2500.82 1126.98C2486.03 1127.32 2471.29 1127.46 2456.63 1128.06L2398.07 1229.64L2395.62 1231.02L2393.33 1229.64L2339.57 1136.88C2325.88 1138.09 2312.29 1139.81 2298.74 1141.24L2362.98 1251.76L2362.98 1254.3L2361.94 1256.5L2360.65 1259.96L2359.74 1263.57L2359.15 1267.28L2358.93 1270.98L2359.15 1274.69L2359.74 1278.37L2360.78 1281.85L2362.16 1285.56L2363.89 1289.05L2366.09 1292.28L2368.54 1295.3L2371.43 1297.94L2374.45 1300.39L2377.81 1302.46L2381.26 1304.1L2386.13 1305.7L2390.88 1306.52L2395.87 1306.74L2400.62 1306.39L2404.67 1305.48L2408.47 1304.19L2412.08 1302.46L2415.54 1300.39L2418.68 1297.94L2421.57 1295.18L2424.12 1292.03L2426.32 1288.67L2428.3 1284.62L2429.8 1280.47L2430.72 1276.17L2431.06 1271.77L2430.94 1267.37L2430.24 1262.97L2428.99 1258.7L2427.61 1255.21L2427.7 1252.92L2500.82 1126.98ZM2133.16 1165.83C2113.33 1169.67 2107.24 1171.24 2084.59 1176.52L2085.03 1306.86L2133.03 1306.74L2133.16 1165.83ZM2396.56 1253.7L2399.46 1253.96L2402.56 1254.99L2403.16 1255.21L2405.71 1256.72L2406.18 1257.06L2408.13 1258.92L2408.6 1259.39L2410.23 1261.72L2410.45 1262.19L2411.61 1264.73L2412.3 1267.84L2412.43 1270.04L2412.3 1272.37L2411.83 1274.56L2411.05 1276.64L2409.98 1278.62L2408.72 1280.47L2407.21 1282.07L2405.49 1283.36L2402.69 1284.87L2399.67 1285.91L2399.11 1286.03L2396.22 1286.25L2393.2 1286.03L2392.86 1285.91L2391.35 1285.56L2389.84 1285.09L2386.48 1283.14L2386.01 1282.77L2383.93 1280.82L2382.68 1279.31L2381.86 1277.93L2380.48 1274.56L2380.35 1273.97L2379.88 1271.33L2379.88 1270.73L2380.01 1267.84L2380.57 1264.83L2381.39 1262.75L2382.55 1260.9L2383.93 1259.17L2385.44 1257.66L2387.17 1256.28L2389.02 1255.21L2391 1254.43L2393.33 1253.83L2396.56 1253.7Z" fill="url(#LinearGradient_6)" fill-rule="nonzero" opacity="1" stroke="none" vectornator:layerName="TV Bot"/>
<path d="M2254.71 991.429L2251.57 991.555L2248.46 991.805L2245.44 992.496L2242.68 993.189L2242.56 993.282L2239.32 994.571L2236.3 996.078L2233.51 997.806L2230.87 999.911L2228.32 1002.2L2226.12 1004.66L2224.02 1007.42L2222.42 1010.31L2220.91 1013.11L2219.87 1016.09L2218.93 1019.11L2218.36 1022.25L2218.02 1025.36L2218.02 1028.63L2218.24 1031.74L2218.71 1034.88L2219.52 1037.99L2220.66 1041.01L2221.94 1043.9L2223.55 1046.79L2225.4 1049.33L2227.51 1051.88L2229.83 1054.08L2232.25 1056.18L2234.67 1057.91L2237.12 1059.29L2239.76 1060.58L2242.56 1061.62L2245.32 1062.43L2248.24 1063.12L2251.13 1063.47L2252.39 1063.47L2254.59 1064.85L2298.69 1141.27C2312.24 1139.84 2326.07 1138.15 2339.76 1136.95L2288.64 1048.89L2288.64 1046.22L2290.97 1044.81L2500.43 1044.81L2502.76 1046.22L2502.76 1048.89L2456.4 1128.06C2471.06 1127.45 2486.14 1127.31 2500.92 1126.96L2536.66 1064.85L2538.86 1063.47L2541.65 1063.34L2545.45 1062.78L2549.29 1061.84L2552.99 1060.33L2556.83 1058.38L2560.41 1055.93L2563.64 1053.04L2566.53 1049.8L2568.86 1046.44L2570.84 1042.86L2572.35 1039.03L2573.48 1035.1L2574.08 1031.05L2574.29 1026.99L2573.95 1022.94L2573.26 1018.89L2572.1 1015.06L2570.59 1011.47L2568.64 1008.11L2566.31 1004.88L2563.77 1001.99L2560.88 999.44L2557.64 997.115L2554.28 995.135L2551.61 994.006L2548.94 993.063L2546.18 992.246L2543.38 991.805L2540.49 991.555L2537.6 991.429L2534.8 991.555L2531.91 992.026L2528.55 992.717L2525.31 993.754L2522.3 995.135L2519.31 996.769L2516.52 998.623L2513.85 1000.82L2511.55 1003.24L2510.39 1004.66L2508.29 1005.69L2283.99 1005.69L2281.92 1004.75L2279.94 1002.33L2276.96 999.661L2273.69 997.241L2270.23 995.261L2266.53 993.659L2262.69 992.496L2258.64 991.679L2254.71 991.429ZM2199.01 1004.88L2017.45 1005L2017.32 1005.44L2017.45 1042.39L2017.92 1042.51L2081.79 1042.39L2083.61 1043.39L2084.59 1045.18L2084.59 1176.54C2103.35 1172.68 2114.01 1169.24 2133.16 1165.83L2133.16 1045.18L2133.97 1043.21L2135.83 1042.39L2199.35 1042.39L2199.48 1042.39L2199.61 1041.92L2199.48 1005L2199.01 1004.88ZM2253.21 1009.75L2256.09 1009.75L2258.89 1010.22L2261.53 1011.25L2262 1011.47L2264.8 1013.2L2265.24 1013.67L2267.34 1015.75L2267.69 1016.22L2269.29 1018.54L2269.98 1020.27L2270.58 1022L2270.92 1023.76L2271.05 1025.36L2270.71 1029.19L2270.58 1029.76L2269.76 1032.43L2268.85 1034.19L2267.91 1035.66L2266.06 1037.64L2263.85 1039.5L2261.31 1040.88L2258.64 1041.82L2255.62 1042.39L2252.39 1042.26L2251.95 1042.17L2249.37 1041.57L2246.48 1040.41L2245.92 1040.19L2243.37 1038.34L2243.02 1037.99L2241.05 1035.79L2240.7 1035.44L2239.19 1032.9L2238.97 1032.43L2238.16 1029.66L2237.68 1026.99L2237.81 1023.98L2238.38 1021.09L2239.54 1018.42L2239.88 1017.85L2241.74 1015.31L2242.08 1014.96L2244.28 1012.98L2244.75 1012.64L2247.3 1011.25L2247.77 1011L2250.53 1010.09L2253.21 1009.75ZM2538.42 1009.75L2541.18 1009.75L2543.85 1010.31L2546.52 1011.25L2549.54 1013.11L2551.61 1015.06L2553.46 1017.6L2554.85 1020.52L2555.66 1023.51L2555.79 1026.52L2555.44 1029.41L2554.5 1032.33L2554.28 1032.9L2552.77 1035.57L2552.43 1035.92L2550.57 1037.99L2550.1 1038.34L2547.9 1040.06L2547.43 1040.32L2544.89 1041.48L2542.22 1042.17L2538.98 1042.39L2535.87 1042.04L2535.4 1041.82L2532.6 1040.88L2532.16 1040.66L2529.84 1039.28L2527.64 1037.3L2527.17 1036.83L2525.44 1034.41L2524.15 1031.74L2523.37 1028.72L2523.11 1025.61L2523.46 1022.47L2524.5 1019.45L2525.44 1017.6L2526.48 1016.09L2527.77 1014.71L2529.15 1013.45L2530.66 1012.29L2532.26 1011.35L2533.89 1010.66L2535.96 1010.09L2538.42 1009.75Z" fill="url(#LinearGradient_7)" fill-rule="nonzero" opacity="1" stroke="none" vectornator:layerName="TV Top"/>
</g>
<g opacity="1" vectornator:layerName="GN">
<path d="M2641.54 1129.57L2641.64 2102.78C2699.32 2097.1 2755.76 2085.06 2809.45 2068.41L2809.51 1142.04C2754.1 1135.83 2698.08 1131.65 2641.54 1129.57ZM2909.79 1155.48L3163.91 1851.86C3304.71 1707.08 3396.24 1510.07 3405.49 1294.14C3348.9 1270.97 3291.18 1249.98 3232.4 1231.42C3232.74 1240.24 3233 1249.07 3233 1257.98C3233 1339.31 3225.58 1395.87 3199.21 1468.05C3199.21 1468.05 3139.29 1302.29 3100.27 1194.23C3037.76 1178.67 2974.24 1165.66 2909.79 1155.48ZM1883.19 1231.37C1824.36 1249.94 1766.63 1270.96 1709.98 1294.14C1727.82 1719.33 2058.41 2063.55 2477.72 2102.78L2477.62 1349.14L2311.75 1349.14L2310.35 1886.03C2059.89 1787.33 1882.54 1543.49 1882.54 1257.98C1882.54 1249.05 1882.85 1240.21 1883.19 1231.37Z" fill="url(#LinearGradient_8)" fill-rule="nonzero" opacity="1" stroke="none" vectornator:layerName="GN Bot"/>
<path d="M2477.72 413.161C2046.58 453.506 1709.12 816.281 1709.12 1257.98C1709.12 1270.1 1709.48 1282.14 1709.98 1294.14C1766.63 1270.96 1824.36 1249.94 1883.19 1231.37C1896.14 897.671 2151.22 626.258 2477.72 587.662L2477.72 413.161ZM2641.48 414.511L2641.54 1129.57C2698.08 1131.65 2754.1 1135.83 2809.51 1142.04L2809.51 880.584L2909.79 1155.48C2974.24 1165.66 3037.76 1178.67 3100.27 1194.23C2995.03 902.796 2833.68 455.771 2833.47 455.693C2733.8 419.219 2641.48 414.511 2641.48 414.511ZM3087.53 595.272L3087.53 839.67C3173.42 948.2 3226.67 1083.67 3232.4 1231.42C3291.18 1249.98 3348.9 1270.97 3405.49 1294.14C3406.01 1282.13 3406.41 1270.09 3406.41 1257.98C3406.41 989.745 3281.83 750.771 3087.53 595.272Z" fill="url(#LinearGradient_9)" fill-rule="nonzero" opacity="1" stroke="none" vectornator:layerName="GN Top"/>
</g>
</g>
</g>
</svg>
