<svg xmlns="http://www.w3.org/2000/svg" xmlns:vectornator="http://vectornator.io" xmlns:xlink="http://www.w3.org/1999/xlink" height="" stroke-miterlimit="10" style="fill-rule:nonzero;clip-rule:evenodd;stroke-linecap:round;stroke-linejoin:round;" version="1.1" viewBox="0 0 3840 1024" width="3840" xml:space="preserve">
<defs>
<linearGradient gradientTransform="matrix(0.469117 6.287e-18 6.08189e-18 0.469117 -445.845 5.35518)" gradientUnits="userSpaceOnUse" id="LinearGradient" x1="1641.21" x2="1637.56" y1="704.771" y2="1233.87">
<stop offset="3.49553e-05" stop-color="#fddf19"></stop>
<stop offset="1" stop-color="#e94420"></stop>
</linearGradient>
<linearGradient gradientTransform="matrix(0.469117 0 0 0.469117 -445.845 5.35518)" gradientUnits="userSpaceOnUse" id="LinearGradient_2" x1="1656.3" x2="1659.28" y1="847.753" y2="991.669">
<stop offset="0.00426454" stop-color="#fde019"></stop>
<stop offset="1" stop-color="#e94420"></stop>
</linearGradient>
<linearGradient gradientTransform="matrix(0.469117 6.287e-18 6.08189e-18 0.469117 -445.845 5.35518)" gradientUnits="userSpaceOnUse" id="LinearGradient_3" x1="1641.21" x2="1637.56" y1="704.771" y2="1233.87">
<stop offset="3.49553e-05" stop-color="#fddf19"></stop>
<stop offset="1" stop-color="#e94420"></stop>
</linearGradient>
<linearGradient gradientTransform="matrix(0.469117 0 0 0.469117 -445.845 5.35518)" gradientUnits="userSpaceOnUse" id="LinearGradient_4" x1="1656.3" x2="1659.28" y1="847.753" y2="991.669">
<stop offset="0.00426454" stop-color="#fde019"></stop>
<stop offset="1" stop-color="#e94420"></stop>
</linearGradient>
<linearGradient gradientTransform="matrix(0.469117 0 0 0.469117 -445.845 5.35518)" gradientUnits="userSpaceOnUse" id="LinearGradient_5" x1="1920.11" x2="1922.25" y1="2323.22" y2="1074.46">
<stop offset="0" stop-color="#00d8da"></stop>
<stop offset="1" stop-color="#004a69"></stop>
</linearGradient>
<linearGradient gradientTransform="matrix(0.469117 0 0 0.469117 -445.845 5.35518)" gradientUnits="userSpaceOnUse" id="LinearGradient_6" x1="1919.95" x2="1919.51" y1="263.097" y2="1238.16">
<stop offset="0" stop-color="#00d8da"></stop>
<stop offset="1" stop-color="#004a69"></stop>
</linearGradient>
</defs>
<g id="GNTV-Logo-Elements" vectornator:layername="GNTV Logo Elements">
<g opacity="1" vectornator:layername="GLOBALNATION">
<g opacity="1" vectornator:layername="TV">
<path d="M3741.04 257.407L3680.24 577.407L3619.04 257.407L3652.64 257.407L3680.24 419.007L3708.24 257.407L3741.04 257.407Z" fill="#00d8da" opacity="1" stroke="none" vectornator:layername="V"></path>
<path d="M3595.08 289.913L3559.48 289.913L3559.48 556.313L3527.08 556.313L3527.08 289.913L3491.88 289.913L3491.88 257.513L3595.08 257.513L3595.08 289.913Z" fill="#00d8da" opacity="1" stroke="none" vectornator:layername="T"></path>
</g>
<g opacity="1" vectornator:layername="Nation">
<g fill="#006894" opacity="1" stroke="none" vectornator:layername="ation">
<path d="M2682.7 737.974L2630.86 737.974L2630.86 638.774L2568.14 638.774L2568.14 737.974L2516.3 737.974L2516.3 638.774L2472.14 638.774L2441.42 589.494L2516.3 589.494L2516.3 343.094C2516.3 313.227 2523.87 289.654 2539.02 272.374C2554.16 255.094 2574.96 246.454 2601.42 246.454C2627.02 246.454 2646.96 255.094 2661.26 272.374C2675.55 289.654 2682.7 313.227 2682.7 343.094L2682.7 737.974ZM2630.86 589.494L2630.86 343.094C2630.86 326.88 2628.51 315.574 2623.82 309.174C2619.12 302.774 2610.8 299.574 2598.86 299.574C2587.76 299.574 2579.87 302.774 2575.18 309.174C2570.48 315.574 2568.14 326.88 2568.14 343.094L2568.14 589.494L2630.86 589.494Z"></path>
<path d="M2875.98 311.734L2819.02 311.734L2819.02 737.974L2767.18 737.974L2767.18 311.734L2710.86 311.734L2710.86 259.894L2875.98 259.894L2875.98 311.734Z"></path>
<path d="M2956.62 737.974L2904.14 737.974L2904.14 259.894L2956.62 259.894L2956.62 737.974Z"></path>
<path d="M3195.34 665.654C3195.34 690.4 3187.44 710.667 3171.66 726.454C3155.87 742.24 3135.39 750.134 3110.22 750.134C3085.04 750.134 3064.46 742.347 3048.46 726.774C3032.46 711.2 3024.46 690.827 3024.46 665.654L3024.46 330.294C3024.46 305.547 3032.46 285.387 3048.46 269.814C3064.46 254.24 3085.04 246.454 3110.22 246.454C3134.54 246.454 3154.8 254.347 3171.02 270.134C3187.23 285.92 3195.34 305.974 3195.34 330.294L3195.34 665.654ZM3144.14 651.574L3144.14 343.734C3144.14 327.094 3141.36 315.574 3135.82 309.174C3130.27 302.774 3121.74 299.574 3110.22 299.574C3098.7 299.574 3090.27 303.094 3084.94 310.134C3079.6 317.174 3076.94 328.374 3076.94 343.734L3076.94 651.574C3076.94 667.787 3079.82 679.2 3085.58 685.814C3091.34 692.427 3099.76 695.734 3110.86 695.734C3133.04 695.734 3144.14 681.014 3144.14 651.574Z"></path>
<path d="M3427.66 737.974L3375.82 737.974L3375.82 527.414L3315.02 425.654L3315.02 737.974L3262.54 737.974L3262.54 234.934L3375.82 432.694L3375.82 259.894L3427.66 259.894L3427.66 737.974Z"></path>
</g>
<path d="M2428.49 737.974L2376.65 737.974L2376.65 527.414L2315.85 425.654L2315.85 737.974L2263.37 737.974L2263.37 234.934L2376.65 432.694L2376.65 259.894L2428.49 259.894L2428.49 737.974Z" fill="#006894" opacity="1" stroke="none" vectornator:layername="N"></path>
</g>
<g opacity="1" vectornator:layername="Global">
<g fill="#00d8da" opacity="1" stroke="none" vectornator:layername="lobal">
<path d="M1345.74 737.528L1288.78 737.528C1257.63 737.528 1236.3 731.768 1224.78 720.248C1211.98 707.448 1205.58 683.128 1205.58 647.288L1205.58 259.448L1258.06 259.448L1258.06 647.288C1258.06 666.062 1259.34 677.155 1261.9 680.568C1264.46 683.982 1273.42 685.688 1288.78 685.688L1345.74 685.688L1345.74 737.528Z"></path>
<path d="M1534.54 665.208C1534.54 689.955 1526.65 710.222 1510.86 726.008C1495.07 741.795 1474.59 749.688 1449.42 749.688C1424.25 749.688 1403.66 741.902 1387.66 726.328C1371.66 710.755 1363.66 690.382 1363.66 665.208L1363.66 329.848C1363.66 305.102 1371.66 284.942 1387.66 269.368C1403.66 253.795 1424.25 246.008 1449.42 246.008C1473.74 246.008 1494.01 253.902 1510.22 269.688C1526.43 285.475 1534.54 305.528 1534.54 329.848L1534.54 665.208ZM1483.34 651.128L1483.34 343.288C1483.34 326.648 1480.57 315.128 1475.02 308.728C1469.47 302.328 1460.94 299.128 1449.42 299.128C1437.9 299.128 1429.47 302.648 1424.14 309.688C1418.81 316.728 1416.14 327.928 1416.14 343.288L1416.14 651.128C1416.14 667.342 1419.02 678.755 1424.78 685.368C1430.54 691.982 1438.97 695.288 1450.06 695.288C1472.25 695.288 1483.34 680.568 1483.34 651.128Z"></path>
<path d="M1794.38 671.608C1794.38 691.662 1787.34 707.662 1773.26 719.608C1759.18 731.555 1739.77 737.528 1715.02 737.528L1624.78 737.528L1624.78 638.328L1580.62 638.328L1549.9 589.048L1624.78 589.048L1624.78 238.328C1630.75 238.328 1645.26 244.302 1668.3 256.248C1702.43 274.168 1729.74 295.928 1750.22 321.528C1779.66 358.648 1794.38 402.382 1794.38 452.728C1794.38 502.648 1776.67 548.088 1741.26 589.048C1759.61 594.168 1773.05 601.528 1781.58 611.128C1790.11 620.728 1794.38 633.635 1794.38 649.848L1794.38 671.608ZM1742.54 458.488C1742.54 422.648 1731.66 389.368 1709.9 358.648C1702.65 348.408 1691.55 336.462 1676.62 322.808L1676.62 589.048C1691.13 576.248 1702.01 564.942 1709.26 555.128C1731.45 524.835 1742.54 492.622 1742.54 458.488ZM1742.54 665.848L1742.54 658.168C1742.54 644.942 1734.86 638.328 1719.5 638.328L1676.62 638.328L1676.62 685.688L1719.5 685.688C1734.86 685.688 1742.54 679.075 1742.54 665.848Z"></path>
<path d="M2038.86 737.528L1987.02 737.528L1987.02 638.328L1924.3 638.328L1924.3 737.528L1872.46 737.528L1872.46 638.328L1828.3 638.328L1797.58 589.048L1872.46 589.048L1872.46 342.648C1872.46 312.782 1880.03 289.208 1895.18 271.928C1910.33 254.648 1931.13 246.008 1957.58 246.008C1983.18 246.008 2003.13 254.648 2017.42 271.928C2031.71 289.208 2038.86 312.782 2038.86 342.648L2038.86 737.528ZM1987.02 589.048L1987.02 342.648C1987.02 326.435 1984.67 315.128 1979.98 308.728C1975.29 302.328 1966.97 299.128 1955.02 299.128C1943.93 299.128 1936.03 302.328 1931.34 308.728C1926.65 315.128 1924.3 326.435 1924.3 342.648L1924.3 589.048L1987.02 589.048Z"></path>
<path d="M2240.7 737.528L2183.74 737.528C2152.59 737.528 2131.26 731.768 2119.74 720.248C2106.94 707.448 2100.54 683.128 2100.54 647.288L2100.54 259.448L2153.02 259.448L2153.02 647.288C2153.02 666.062 2154.3 677.155 2156.86 680.568C2159.42 683.982 2168.38 685.688 2183.74 685.688L2240.7 685.688L2240.7 737.528Z"></path>
</g>
<path d="M1143.05 749.134C1136.65 749.134 1121.08 742.094 1096.33 728.014C1060.49 707.534 1031.27 681.507 1008.65 649.934C976.652 605.134 960.652 552.654 960.652 492.494C960.652 434.894 976.225 384.334 1007.37 340.814C1029.99 309.24 1059.21 282.574 1095.05 260.814C1120.23 245.454 1136.23 237.774 1143.05 237.774L1143.05 292.174C1138.79 292.174 1127.69 297.934 1109.77 309.454C1083.32 326.52 1062.41 347 1047.05 370.894C1024.44 405.88 1013.13 446.414 1013.13 492.494C1013.13 539 1025.93 581.027 1051.53 618.574C1060.07 630.947 1073.08 645.24 1090.57 661.454L1090.57 496.974L1143.05 496.974L1143.05 749.134Z" fill="#00d8da" opacity="1" stroke="none" vectornator:layername="G"></path>
</g>
</g>
<g opacity="1" vectornator:layername="GNTV">
<g opacity="0" vectornator:layername="TV BAK">
<path d="M428.286 450.876C421.387 451.038 414.507 451.101 407.668 451.383L380.344 498.779L379.2 499.424L378.13 498.779L353.048 455.498C346.659 456.061 340.317 456.864 333.995 457.53L363.969 509.099L363.969 510.287L363.485 511.313L362.884 512.926L362.458 514.612L362.18 516.341L362.077 518.071L362.18 519.801L362.458 521.516L362.943 523.143L363.588 524.874L364.394 526.501L365.42 528.01L366.564 529.418L367.912 530.65L369.319 531.793L370.889 532.76L372.501 533.523L374.773 534.271L376.987 534.652L379.318 534.754L381.532 534.593L383.422 534.168L385.196 533.567L386.882 532.76L388.495 531.793L389.961 530.65L391.309 529.359L392.497 527.893L393.523 526.325L394.447 524.434L395.15 522.498L395.576 520.49L395.737 518.437L395.678 516.385L395.356 514.333L394.769 512.339L394.124 510.712L394.168 509.641L428.286 450.876ZM256.731 469.005C247.478 470.799 244.64 471.531 234.07 473.995L234.273 534.813L256.673 534.754L256.731 469.005ZM379.64 510.008L380.989 510.126L382.44 510.609L382.719 510.712L383.906 511.415L384.126 511.576L385.035 512.442L385.255 512.662L386.017 513.747L386.12 513.966L386.662 515.154L386.985 516.605L387.043 517.631L386.985 518.716L386.765 519.742L386.399 520.71L385.9 521.634L385.314 522.498L384.61 523.246L383.804 523.848L382.499 524.551L381.092 525.035L380.827 525.094L379.479 525.196L378.072 525.094L377.911 525.035L377.206 524.874L376.503 524.654L374.934 523.744L374.714 523.569L373.747 522.66L373.16 521.956L372.779 521.311L372.134 519.742L372.076 519.464L371.856 518.233L371.856 517.954L371.914 516.605L372.178 515.198L372.559 514.23L373.102 513.366L373.747 512.559L374.451 511.855L375.257 511.211L376.121 510.712L377.045 510.346L378.13 510.067L379.64 510.008Z" fill="url(#LinearGradient)" fill-rule="nonzero" opacity="1" stroke="none" vectornator:layername="TV Bot"></path>
<path d="M313.451 387.627L311.985 387.686L310.533 387.803L309.126 388.125L307.836 388.449L307.778 388.492L306.267 389.093L304.86 389.797L303.555 390.603L302.324 391.585L301.137 392.656L300.11 393.799L299.128 395.089L298.38 396.438L297.677 397.743L297.192 399.135L296.753 400.542L296.489 402.008L296.328 403.46L296.328 404.985L296.431 406.436L296.65 407.902L297.031 409.354L297.559 410.761L298.16 412.109L298.908 413.458L299.773 414.645L300.755 415.833L301.84 416.859L302.969 417.842L304.098 418.648L305.241 419.292L306.473 419.894L307.778 420.377L309.067 420.758L310.431 421.082L311.779 421.243L312.366 421.243L313.392 421.888L333.97 457.544C340.292 456.879 346.744 456.091 353.133 455.53L329.283 414.44L329.283 413.194L330.368 412.535L428.106 412.535L429.19 413.194L429.19 414.44L407.562 451.379C414.402 451.098 421.437 451.03 428.336 450.868L445.008 421.888L446.035 421.243L447.34 421.184L449.114 420.92L450.902 420.48L452.632 419.777L454.42 418.868L456.092 417.724L457.602 416.376L458.95 414.865L460.035 413.297L460.959 411.626L461.662 409.837L462.19 408.005L462.469 406.114L462.571 404.222L462.41 402.332L462.088 400.44L461.545 398.652L460.842 396.98L459.933 395.412L458.848 393.902L457.66 392.553L456.312 391.365L454.801 390.28L453.233 389.357L451.987 388.83L450.741 388.39L449.451 388.009L448.146 387.803L446.797 387.686L445.449 387.627L444.144 387.686L442.795 387.906L441.226 388.229L439.717 388.712L438.309 389.357L436.916 390.119L435.612 390.984L434.365 392.011L433.295 393.139L432.753 393.799L431.771 394.283L327.114 394.283L326.146 393.843L325.223 392.714L323.83 391.468L322.305 390.339L320.693 389.416L318.963 388.668L317.174 388.125L315.283 387.744L313.451 387.627ZM287.458 393.902L202.739 393.96L202.68 394.166L202.739 411.406L202.959 411.464L232.762 411.406L233.612 411.875L234.067 412.71L234.07 474.002C242.823 472.201 247.794 470.597 256.731 469.005L256.731 412.71L257.113 411.787L257.977 411.406L287.62 411.406L287.678 411.406L287.737 411.186L287.678 393.96L287.458 393.902ZM312.747 396.174L314.095 396.174L315.4 396.394L316.632 396.878L316.852 396.98L318.156 397.787L318.362 398.006L319.344 398.974L319.506 399.194L320.253 400.279L320.575 401.085L320.854 401.892L321.015 402.712L321.074 403.46L320.913 405.248L320.854 405.513L320.473 406.759L320.048 407.58L319.608 408.268L318.743 409.192L317.716 410.057L316.529 410.702L315.283 411.142L313.876 411.406L312.366 411.347L312.16 411.303L310.959 411.024L309.609 410.482L309.346 410.38L308.159 409.515L307.997 409.354L307.073 408.327L306.912 408.166L306.208 406.979L306.106 406.759L305.725 405.468L305.505 404.222L305.564 402.815L305.827 401.466L306.37 400.22L306.531 399.956L307.396 398.769L307.558 398.607L308.584 397.684L308.804 397.523L309.991 396.878L310.211 396.76L311.501 396.335L312.747 396.174ZM445.83 396.174L447.12 396.174L448.366 396.438L449.612 396.878L451.019 397.743L451.987 398.652L452.852 399.839L453.497 401.202L453.878 402.595L453.937 404.002L453.775 405.351L453.335 406.714L453.233 406.979L452.529 408.225L452.368 408.386L451.503 409.354L451.283 409.515L450.257 410.321L450.037 410.438L448.85 410.981L447.604 411.303L446.093 411.406L444.643 411.244L444.423 411.142L443.118 410.702L442.912 410.6L441.827 409.954L440.802 409.03L440.581 408.81L439.775 407.682L439.174 406.436L438.808 405.028L438.69 403.578L438.852 402.112L439.336 400.704L439.775 399.839L440.259 399.135L440.86 398.491L441.505 397.904L442.209 397.361L442.957 396.921L443.719 396.599L444.686 396.335L445.83 396.174Z" fill="url(#LinearGradient_2)" fill-rule="nonzero" opacity="1" stroke="none" vectornator:layername="TV Top"></path>
</g>
<g opacity="1" vectornator:layername="TV">
<path d="M428.286 450.876C421.387 451.038 414.507 451.101 407.668 451.383L380.344 498.779L379.2 499.424L378.13 498.779L353.048 455.498C346.659 456.061 340.317 456.864 333.995 457.53L363.969 509.099L363.969 510.287L363.485 511.313L362.884 512.926L362.458 514.612L362.18 516.341L362.077 518.071L362.18 519.801L362.458 521.516L362.943 523.143L363.588 524.874L364.394 526.501L365.42 528.01L366.564 529.418L367.912 530.65L369.319 531.793L370.889 532.76L372.501 533.523L374.773 534.271L376.987 534.652L379.318 534.754L381.532 534.593L383.422 534.168L385.196 533.567L386.882 532.76L388.495 531.793L389.961 530.65L391.309 529.359L392.497 527.893L393.523 526.325L394.447 524.434L395.15 522.498L395.576 520.49L395.737 518.437L395.678 516.385L395.356 514.333L394.769 512.339L394.124 510.712L394.168 509.641L428.286 450.876ZM256.731 469.005C247.478 470.799 244.64 471.531 234.07 473.995L234.273 534.813L256.673 534.754L256.731 469.005ZM379.64 510.008L380.989 510.126L382.44 510.609L382.719 510.712L383.906 511.415L384.126 511.576L385.035 512.442L385.255 512.662L386.017 513.747L386.12 513.966L386.662 515.154L386.985 516.605L387.043 517.631L386.985 518.716L386.765 519.742L386.399 520.71L385.9 521.634L385.314 522.498L384.61 523.246L383.804 523.848L382.499 524.551L381.092 525.035L380.827 525.094L379.479 525.196L378.072 525.094L377.911 525.035L377.206 524.874L376.503 524.654L374.934 523.744L374.714 523.569L373.747 522.66L373.16 521.956L372.779 521.311L372.134 519.742L372.076 519.464L371.856 518.233L371.856 517.954L371.914 516.605L372.178 515.198L372.559 514.23L373.102 513.366L373.747 512.559L374.451 511.855L375.257 511.211L376.121 510.712L377.045 510.346L378.13 510.067L379.64 510.008Z" fill="url(#LinearGradient_3)" fill-rule="nonzero" opacity="1" stroke="none" vectornator:layername="TV Bot"></path>
<path d="M313.451 387.627L311.985 387.686L310.533 387.803L309.126 388.125L307.836 388.449L307.778 388.492L306.267 389.093L304.86 389.797L303.555 390.603L302.324 391.585L301.137 392.656L300.11 393.799L299.128 395.089L298.38 396.438L297.677 397.743L297.192 399.135L296.753 400.542L296.489 402.008L296.328 403.46L296.328 404.985L296.431 406.436L296.65 407.902L297.031 409.354L297.559 410.761L298.16 412.109L298.908 413.458L299.773 414.645L300.755 415.833L301.84 416.859L302.969 417.842L304.098 418.648L305.241 419.292L306.473 419.894L307.778 420.377L309.067 420.758L310.431 421.082L311.779 421.243L312.366 421.243L313.392 421.888L333.97 457.544C340.292 456.879 346.744 456.091 353.133 455.53L329.283 414.44L329.283 413.194L330.368 412.535L428.106 412.535L429.19 413.194L429.19 414.44L407.562 451.379C414.402 451.098 421.437 451.03 428.336 450.868L445.008 421.888L446.035 421.243L447.34 421.184L449.114 420.92L450.902 420.48L452.632 419.777L454.42 418.868L456.092 417.724L457.602 416.376L458.95 414.865L460.035 413.297L460.959 411.626L461.662 409.837L462.19 408.005L462.469 406.114L462.571 404.222L462.41 402.332L462.088 400.44L461.545 398.652L460.842 396.98L459.933 395.412L458.848 393.902L457.66 392.553L456.312 391.365L454.801 390.28L453.233 389.357L451.987 388.83L450.741 388.39L449.451 388.009L448.146 387.803L446.797 387.686L445.449 387.627L444.144 387.686L442.795 387.906L441.226 388.229L439.717 388.712L438.309 389.357L436.916 390.119L435.612 390.984L434.365 392.011L433.295 393.139L432.753 393.799L431.771 394.283L327.114 394.283L326.146 393.843L325.223 392.714L323.83 391.468L322.305 390.339L320.693 389.416L318.963 388.668L317.174 388.125L315.283 387.744L313.451 387.627ZM287.458 393.902L202.739 393.96L202.68 394.166L202.739 411.406L202.959 411.464L232.762 411.406L233.612 411.875L234.067 412.71L234.07 474.002C242.823 472.201 247.794 470.597 256.731 469.005L256.731 412.71L257.113 411.787L257.977 411.406L287.62 411.406L287.678 411.406L287.737 411.186L287.678 393.96L287.458 393.902ZM312.747 396.174L314.095 396.174L315.4 396.394L316.632 396.878L316.852 396.98L318.156 397.787L318.362 398.006L319.344 398.974L319.506 399.194L320.253 400.279L320.575 401.085L320.854 401.892L321.015 402.712L321.074 403.46L320.913 405.248L320.854 405.513L320.473 406.759L320.048 407.58L319.608 408.268L318.743 409.192L317.716 410.057L316.529 410.702L315.283 411.142L313.876 411.406L312.366 411.347L312.16 411.303L310.959 411.024L309.609 410.482L309.346 410.38L308.159 409.515L307.997 409.354L307.073 408.327L306.912 408.166L306.208 406.979L306.106 406.759L305.725 405.468L305.505 404.222L305.564 402.815L305.827 401.466L306.37 400.22L306.531 399.956L307.396 398.769L307.558 398.607L308.584 397.684L308.804 397.523L309.991 396.878L310.211 396.76L311.501 396.335L312.747 396.174ZM445.83 396.174L447.12 396.174L448.366 396.438L449.612 396.878L451.019 397.743L451.987 398.652L452.852 399.839L453.497 401.202L453.878 402.595L453.937 404.002L453.775 405.351L453.335 406.714L453.233 406.979L452.529 408.225L452.368 408.386L451.503 409.354L451.283 409.515L450.257 410.321L450.037 410.438L448.85 410.981L447.604 411.303L446.093 411.406L444.643 411.244L444.423 411.142L443.118 410.702L442.912 410.6L441.827 409.954L440.802 409.03L440.581 408.81L439.775 407.682L439.174 406.436L438.808 405.028L438.69 403.578L438.852 402.112L439.336 400.704L439.775 399.839L440.259 399.135L440.86 398.491L441.505 397.904L442.209 397.361L442.957 396.921L443.719 396.599L444.686 396.335L445.83 396.174Z" fill="url(#LinearGradient_4)" fill-rule="nonzero" opacity="1" stroke="none" vectornator:layername="TV Top"></path>
</g>
<g opacity="1" vectornator:layername="GN">
<path d="M493.948 452.086L493.998 906.2C520.91 903.546 547.246 897.931 572.3 890.161L572.325 457.904C546.471 455.008 520.333 453.058 493.948 452.086ZM619.119 464.175L737.692 789.117C803.392 721.557 846.099 629.631 850.42 528.877C824.012 518.067 797.08 508.269 769.652 499.611C769.812 503.725 769.93 507.848 769.93 512.002C769.93 549.951 766.469 576.346 754.163 610.024C754.163 610.024 726.205 532.677 707.999 482.258C678.828 474.994 649.192 468.927 619.119 464.175ZM140.094 499.586C112.644 508.25 85.7037 518.058 59.2734 528.877C67.5947 727.273 221.852 887.894 417.51 906.2L417.46 554.54L340.065 554.54L339.41 805.059C222.544 759.007 139.792 645.228 139.791 512.002C139.791 507.838 139.933 503.711 140.094 499.586Z" fill="url(#LinearGradient_5)" fill-rule="nonzero" opacity="1" stroke="none" vectornator:layername="GN Bot"></path>
<path d="M417.51 117.8C216.331 136.626 58.8704 305.901 58.8704 512.002C58.8704 517.658 59.0386 523.279 59.2734 528.877C85.7037 518.058 112.644 508.25 140.094 499.586C146.138 343.879 265.16 217.234 417.51 199.225L417.51 117.8ZM493.923 118.43L493.948 452.086C520.333 453.058 546.471 455.009 572.325 457.904L572.325 335.906L619.119 464.175C649.192 468.927 678.828 474.994 707.999 482.258C658.894 346.27 583.605 137.683 583.507 137.647C536.997 120.627 493.923 118.43 493.923 118.43ZM702.055 202.776L702.055 316.815C742.13 367.456 766.977 430.667 769.652 499.611C797.08 508.269 824.012 518.067 850.42 528.877C850.662 523.274 850.847 517.656 850.847 512.002C850.847 386.842 792.717 275.334 702.055 202.776Z" fill="url(#LinearGradient_6)" fill-rule="nonzero" opacity="1" stroke="none" vectornator:layername="GN Top"></path>
</g>
</g>
</g>
</svg>