<svg xmlns="http://www.w3.org/2000/svg" xmlns:vectornator="http://vectornator.io" xmlns:xlink="http://www.w3.org/1999/xlink" height="100%" stroke-miterlimit="10" style="fill-rule:nonzero;clip-rule:evenodd;stroke-linecap:round;stroke-linejoin:round;" viewBox="0 0 3840 1024" width="100%" xml:space="preserve"><defs><linearGradient gradientTransform="matrix(0.469117 6.287e-18 6.08189e-18 0.469117 -445.845 5.35518)" gradientUnits="userSpaceOnUse" id="LinearGradient" x1="1641.21" x2="1637.56" y1="704.771" y2="1233.87"><stop offset="3.49553e-05" stop-color="#fddf19"></stop><stop offset="1" stop-color="#e94420"></stop></linearGradient><linearGradient gradientTransform="matrix(0.469117 0 0 0.469117 -445.845 5.35518)" gradientUnits="userSpaceOnUse" id="LinearGradient_2" x1="1656.3" x2="1659.28" y1="847.753" y2="991.669"><stop offset="0.00426454" stop-color="#fde019"></stop><stop offset="1" stop-color="#e94420"></stop></linearGradient><linearGradient gradientTransform="matrix(0.469117 6.287e-18 6.08189e-18 0.469117 -445.845 5.35518)" gradientUnits="userSpaceOnUse" id="LinearGradient_3" x1="1641.21" x2="1637.56" y1="704.771" y2="1233.87"><stop offset="3.49553e-05" stop-color="#fddf19"></stop><stop offset="1" stop-color="#e94420"></stop></linearGradient><linearGradient gradientTransform="matrix(0.469117 0 0 0.469117 -445.845 5.35518)" gradientUnits="userSpaceOnUse" id="LinearGradient_4" x1="1656.3" x2="1659.28" y1="847.753" y2="991.669"><stop offset="0.00426454" stop-color="#fde019"></stop><stop offset="1" stop-color="#e94420"></stop></linearGradient><linearGradient gradientTransform="matrix(0.469117 0 0 0.469117 -445.845 5.35518)" gradientUnits="userSpaceOnUse" id="LinearGradient_5" x1="1920.11" x2="1922.25" y1="2323.22" y2="1074.46"><stop offset="0" stop-color="#00d8da"></stop><stop offset="1" stop-color="#004a69"></stop></linearGradient><linearGradient gradientTransform="matrix(0.469117 0 0 0.469117 -445.845 5.35518)" gradientUnits="userSpaceOnUse" id="LinearGradient_6" x1="1919.95" x2="1919.51" y1="263.097" y2="1238.16"><stop offset="0" stop-color="#00d8da"></stop><stop offset="1" stop-color="#004a69"></stop></linearGradient></defs><g id="GNTV-Logo-Elements" vectornator:layerName="GNTV Logo Elements"><g fill="#015d83" opacity="1" stroke="none" vectornator:layerName="Text 1"><path d="M1144.05 744.944C1137.75 744.944 1122.42 738.014 1098.06 724.154C1062.78 703.994 1034.01 678.374 1011.75 647.294C980.252 603.194 964.502 551.534 964.502 492.314C964.502 435.614 979.832 385.844 1010.49 343.004C1032.75 311.924 1061.52 285.674 1096.8 264.254C1121.58 249.134 1137.33 241.574 1144.05 241.574L1144.05 295.124C1139.85 295.124 1128.93 300.794 1111.29 312.134C1085.25 328.934 1064.67 349.094 1049.55 372.614C1027.29 407.054 1016.16 446.954 1016.16 492.314C1016.16 538.094 1028.76 579.464 1053.96 616.424C1062.36 628.604 1075.17 642.674 1092.39 658.634L1092.39 496.724L1144.05 496.724L1144.05 744.944Z" fill="#00d8da"></path><path d="M1348.17 732.974L1292.1 732.974C1261.44 732.974 1240.44 727.304 1229.1 715.964C1216.5 703.364 1210.2 679.424 1210.2 644.144L1210.2 262.364L1261.86 262.364L1261.86 644.144C1261.86 662.624 1263.12 673.544 1265.64 676.904C1268.16 680.264 1276.98 681.944 1292.1 681.944L1348.17 681.944L1348.17 732.974Z" fill="#00d8da"></path><path d="M1534.02 661.784C1534.02 686.144 1526.25 706.094 1510.71 721.634C1495.17 737.174 1475.01 744.944 1450.23 744.944C1425.45 744.944 1405.19 737.279 1389.44 721.949C1373.69 706.619 1365.81 686.564 1365.81 661.784L1365.81 331.664C1365.81 307.304 1373.69 287.459 1389.44 272.129C1405.19 256.799 1425.45 249.134 1450.23 249.134C1474.17 249.134 1494.12 256.904 1510.08 272.444C1526.04 287.984 1534.02 307.724 1534.02 331.664L1534.02 661.784ZM1483.62 647.924L1483.62 344.894C1483.62 328.514 1480.89 317.174 1475.43 310.874C1469.97 304.574 1461.57 301.424 1450.23 301.424C1438.89 301.424 1430.6 304.889 1425.35 311.819C1420.1 318.749 1417.47 329.774 1417.47 344.894L1417.47 647.924C1417.47 663.884 1420.31 675.119 1425.98 681.629C1431.65 688.139 1439.94 691.394 1450.86 691.394C1472.7 691.394 1483.62 676.904 1483.62 647.924Z" fill="#00d8da"></path><path d="M1789.8 668.084C1789.8 687.824 1782.87 703.574 1769.01 715.334C1755.15 727.094 1736.04 732.974 1711.68 732.974L1622.85 732.974L1622.85 635.324L1579.38 635.324L1549.14 586.814L1622.85 586.814L1622.85 241.574C1628.73 241.574 1643.01 247.454 1665.69 259.214C1699.29 276.854 1726.17 298.274 1746.33 323.474C1775.31 360.014 1789.8 403.064 1789.8 452.624C1789.8 501.764 1772.37 546.494 1737.51 586.814C1755.57 591.854 1768.8 599.099 1777.2 608.549C1785.6 617.999 1789.8 630.704 1789.8 646.664L1789.8 668.084ZM1738.77 458.294C1738.77 423.014 1728.06 390.254 1706.64 360.014C1699.5 349.934 1688.58 338.174 1673.88 324.734L1673.88 586.814C1688.16 574.214 1698.87 563.084 1706.01 553.424C1727.85 523.604 1738.77 491.894 1738.77 458.294ZM1738.77 662.414L1738.77 654.854C1738.77 641.834 1731.21 635.324 1716.09 635.324L1673.88 635.324L1673.88 681.944L1716.09 681.944C1731.21 681.944 1738.77 675.434 1738.77 662.414Z" fill="#00d8da"></path><path d="M2030.46 732.974L1979.43 732.974L1979.43 635.324L1917.69 635.324L1917.69 732.974L1866.66 732.974L1866.66 635.324L1823.19 635.324L1792.95 586.814L1866.66 586.814L1866.66 344.264C1866.66 314.864 1874.12 291.659 1889.03 274.649C1903.94 257.639 1924.41 249.134 1950.45 249.134C1975.65 249.134 1995.29 257.639 2009.36 274.649C2023.43 291.659 2030.46 314.864 2030.46 344.264L2030.46 732.974ZM1979.43 586.814L1979.43 344.264C1979.43 328.304 1977.12 317.174 1972.5 310.874C1967.88 304.574 1959.69 301.424 1947.93 301.424C1937.01 301.424 1929.24 304.574 1924.62 310.874C1920 317.174 1917.69 328.304 1917.69 344.264L1917.69 586.814L1979.43 586.814Z" fill="#00d8da"></path><path d="M2238.99 732.974L2182.92 732.974C2152.26 732.974 2131.26 727.304 2119.92 715.964C2107.32 703.364 2101.02 679.424 2101.02 644.144L2101.02 262.364L2152.68 262.364L2152.68 644.144C2152.68 662.624 2153.94 673.544 2156.46 676.904C2158.98 680.264 2167.8 681.944 2182.92 681.944L2238.99 681.944L2238.99 732.974Z" fill="#00d8da"></path><path d="M2422.32 732.974L2371.29 732.974L2371.29 525.704L2311.44 425.534L2311.44 732.974L2259.78 732.974L2259.78 237.794L2371.29 432.464L2371.29 262.364L2422.32 262.364L2422.32 732.974Z"></path><path d="M2677.47 732.974L2626.44 732.974L2626.44 635.324L2564.7 635.324L2564.7 732.974L2513.67 732.974L2513.67 635.324L2470.2 635.324L2439.96 586.814L2513.67 586.814L2513.67 344.264C2513.67 314.864 2521.13 291.659 2536.04 274.649C2550.95 257.639 2571.42 249.134 2597.46 249.134C2622.66 249.134 2642.3 257.639 2656.37 274.649C2670.44 291.659 2677.47 314.864 2677.47 344.264L2677.47 732.974ZM2626.44 586.814L2626.44 344.264C2626.44 328.304 2624.13 317.174 2619.51 310.874C2614.89 304.574 2606.7 301.424 2594.94 301.424C2584.02 301.424 2576.25 304.574 2571.63 310.874C2567.01 317.174 2564.7 328.304 2564.7 344.264L2564.7 586.814L2626.44 586.814Z"></path><path d="M2867.73 313.394L2811.66 313.394L2811.66 732.974L2760.63 732.974L2760.63 313.394L2705.19 313.394L2705.19 262.364L2867.73 262.364L2867.73 313.394Z"></path><path d="M2947.11 732.974L2895.45 732.974L2895.45 262.364L2947.11 262.364L2947.11 732.974Z"></path><path d="M3182.1 661.784C3182.1 686.144 3174.33 706.094 3158.79 721.634C3143.25 737.174 3123.09 744.944 3098.31 744.944C3073.53 744.944 3053.27 737.279 3037.52 721.949C3021.77 706.619 3013.89 686.564 3013.89 661.784L3013.89 331.664C3013.89 307.304 3021.77 287.459 3037.52 272.129C3053.27 256.799 3073.53 249.134 3098.31 249.134C3122.25 249.134 3142.2 256.904 3158.16 272.444C3174.12 287.984 3182.1 307.724 3182.1 331.664L3182.1 661.784ZM3131.7 647.924L3131.7 344.894C3131.7 328.514 3128.97 317.174 3123.51 310.874C3118.05 304.574 3109.65 301.424 3098.31 301.424C3086.97 301.424 3078.68 304.889 3073.43 311.819C3068.18 318.749 3065.55 329.774 3065.55 344.894L3065.55 647.924C3065.55 663.884 3068.39 675.119 3074.06 681.629C3079.73 688.139 3088.02 691.394 3098.94 691.394C3120.78 691.394 3131.7 676.904 3131.7 647.924Z"></path><path d="M3410.79 732.974L3359.76 732.974L3359.76 525.704L3299.91 425.534L3299.91 732.974L3248.25 732.974L3248.25 237.794L3359.76 432.464L3359.76 262.364L3410.79 262.364L3410.79 732.974Z"></path><path d="M3779.34 505.544L3742.8 505.544L3742.8 300.164C3742.8 289.664 3737.97 284.414 3728.31 284.414C3719.07 284.414 3714.45 289.664 3714.45 300.164L3714.45 505.544L3678.54 505.544L3678.54 300.164C3678.54 289.664 3673.71 284.414 3664.05 284.414C3655.23 284.414 3650.82 289.664 3650.82 300.164L3650.82 505.544L3613.65 505.544L3613.65 300.164C3613.65 284.624 3618.06 272.234 3626.88 262.994C3635.7 253.754 3647.67 249.134 3662.79 249.134C3669.51 249.134 3676.44 250.814 3683.58 254.174C3687.78 256.274 3692.19 258.794 3696.81 261.734C3703.53 257.534 3709.31 254.384 3714.14 252.284C3718.97 250.184 3724.11 249.134 3729.57 249.134C3745.11 249.134 3757.29 253.649 3766.11 262.679C3774.93 271.709 3779.34 284.204 3779.34 300.164L3779.34 505.544ZM3592.86 291.344L3558.21 291.344L3558.21 505.544L3522.93 505.544L3522.93 291.344L3488.28 291.344L3488.28 256.694L3592.86 256.694L3592.86 291.344Z"></path></g><g opacity="1" vectornator:layerName="GNTV"><g opacity="0" vectornator:layerName="TV BAK"><path d="M428.286 450.876C421.387 451.038 414.507 451.101 407.668 451.383L380.344 498.779L379.2 499.424L378.13 498.779L353.048 455.498C346.659 456.061 340.317 456.864 333.995 457.53L363.969 509.099L363.969 510.287L363.485 511.313L362.884 512.926L362.458 514.612L362.18 516.341L362.077 518.071L362.18 519.801L362.458 521.516L362.943 523.143L363.588 524.874L364.394 526.501L365.42 528.01L366.564 529.418L367.912 530.65L369.319 531.793L370.889 532.76L372.501 533.523L374.773 534.271L376.987 534.652L379.318 534.754L381.532 534.593L383.422 534.168L385.196 533.567L386.882 532.76L388.495 531.793L389.961 530.65L391.309 529.359L392.497 527.893L393.523 526.325L394.447 524.434L395.15 522.498L395.576 520.49L395.737 518.437L395.678 516.385L395.356 514.333L394.769 512.339L394.124 510.712L394.168 509.641L428.286 450.876ZM256.731 469.005C247.478 470.799 244.64 471.531 234.07 473.995L234.273 534.813L256.673 534.754L256.731 469.005ZM379.64 510.008L380.989 510.126L382.44 510.609L382.719 510.712L383.906 511.415L384.126 511.576L385.035 512.442L385.255 512.662L386.017 513.747L386.12 513.966L386.662 515.154L386.985 516.605L387.043 517.631L386.985 518.716L386.765 519.742L386.399 520.71L385.9 521.634L385.314 522.498L384.61 523.246L383.804 523.848L382.499 524.551L381.092 525.035L380.827 525.094L379.479 525.196L378.072 525.094L377.911 525.035L377.206 524.874L376.503 524.654L374.934 523.744L374.714 523.569L373.747 522.66L373.16 521.956L372.779 521.311L372.134 519.742L372.076 519.464L371.856 518.233L371.856 517.954L371.914 516.605L372.178 515.198L372.559 514.23L373.102 513.366L373.747 512.559L374.451 511.855L375.257 511.211L376.121 510.712L377.045 510.346L378.13 510.067L379.64 510.008Z" fill="url(#LinearGradient)" fill-rule="nonzero" opacity="1" stroke="none" vectornator:layerName="TV Bot"></path><path d="M313.451 387.627L311.985 387.686L310.533 387.803L309.126 388.125L307.836 388.449L307.778 388.492L306.267 389.093L304.86 389.797L303.555 390.603L302.324 391.585L301.137 392.656L300.11 393.799L299.128 395.089L298.38 396.438L297.677 397.743L297.192 399.135L296.753 400.542L296.489 402.008L296.328 403.46L296.328 404.985L296.431 406.436L296.65 407.902L297.031 409.354L297.559 410.761L298.16 412.109L298.908 413.458L299.773 414.645L300.755 415.833L301.84 416.859L302.969 417.842L304.098 418.648L305.241 419.292L306.473 419.894L307.778 420.377L309.067 420.758L310.431 421.082L311.779 421.243L312.366 421.243L313.392 421.888L333.97 457.544C340.292 456.879 346.744 456.091 353.133 455.53L329.283 414.44L329.283 413.194L330.368 412.535L428.106 412.535L429.19 413.194L429.19 414.44L407.562 451.379C414.402 451.098 421.437 451.03 428.336 450.868L445.008 421.888L446.035 421.243L447.34 421.184L449.114 420.92L450.902 420.48L452.632 419.777L454.42 418.868L456.092 417.724L457.602 416.376L458.95 414.865L460.035 413.297L460.959 411.626L461.662 409.837L462.19 408.005L462.469 406.114L462.571 404.222L462.41 402.332L462.088 400.44L461.545 398.652L460.842 396.98L459.933 395.412L458.848 393.902L457.66 392.553L456.312 391.365L454.801 390.28L453.233 389.357L451.987 388.83L450.741 388.39L449.451 388.009L448.146 387.803L446.797 387.686L445.449 387.627L444.144 387.686L442.795 387.906L441.226 388.229L439.717 388.712L438.309 389.357L436.916 390.119L435.612 390.984L434.365 392.011L433.295 393.139L432.753 393.799L431.771 394.283L327.114 394.283L326.146 393.843L325.223 392.714L323.83 391.468L322.305 390.339L320.693 389.416L318.963 388.668L317.174 388.125L315.283 387.744L313.451 387.627ZM287.458 393.902L202.739 393.96L202.68 394.166L202.739 411.406L202.959 411.464L232.762 411.406L233.612 411.875L234.067 412.71L234.07 474.002C242.823 472.201 247.794 470.597 256.731 469.005L256.731 412.71L257.113 411.787L257.977 411.406L287.62 411.406L287.678 411.406L287.737 411.186L287.678 393.96L287.458 393.902ZM312.747 396.174L314.095 396.174L315.4 396.394L316.632 396.878L316.852 396.98L318.156 397.787L318.362 398.006L319.344 398.974L319.506 399.194L320.253 400.279L320.575 401.085L320.854 401.892L321.015 402.712L321.074 403.46L320.913 405.248L320.854 405.513L320.473 406.759L320.048 407.58L319.608 408.268L318.743 409.192L317.716 410.057L316.529 410.702L315.283 411.142L313.876 411.406L312.366 411.347L312.16 411.303L310.959 411.024L309.609 410.482L309.346 410.38L308.159 409.515L307.997 409.354L307.073 408.327L306.912 408.166L306.208 406.979L306.106 406.759L305.725 405.468L305.505 404.222L305.564 402.815L305.827 401.466L306.37 400.22L306.531 399.956L307.396 398.769L307.558 398.607L308.584 397.684L308.804 397.523L309.991 396.878L310.211 396.76L311.501 396.335L312.747 396.174ZM445.83 396.174L447.12 396.174L448.366 396.438L449.612 396.878L451.019 397.743L451.987 398.652L452.852 399.839L453.497 401.202L453.878 402.595L453.937 404.002L453.775 405.351L453.335 406.714L453.233 406.979L452.529 408.225L452.368 408.386L451.503 409.354L451.283 409.515L450.257 410.321L450.037 410.438L448.85 410.981L447.604 411.303L446.093 411.406L444.643 411.244L444.423 411.142L443.118 410.702L442.912 410.6L441.827 409.954L440.802 409.03L440.581 408.81L439.775 407.682L439.174 406.436L438.808 405.028L438.69 403.578L438.852 402.112L439.336 400.704L439.775 399.839L440.259 399.135L440.86 398.491L441.505 397.904L442.209 397.361L442.957 396.921L443.719 396.599L444.686 396.335L445.83 396.174Z" fill="url(#LinearGradient_2)" fill-rule="nonzero" opacity="1" stroke="none" vectornator:layerName="TV Top"></path></g><g opacity="1" vectornator:layerName="TV"><path d="M428.286 450.876C421.387 451.038 414.507 451.101 407.668 451.383L380.344 498.779L379.2 499.424L378.13 498.779L353.048 455.498C346.659 456.061 340.317 456.864 333.995 457.53L363.969 509.099L363.969 510.287L363.485 511.313L362.884 512.926L362.458 514.612L362.18 516.341L362.077 518.071L362.18 519.801L362.458 521.516L362.943 523.143L363.588 524.874L364.394 526.501L365.42 528.01L366.564 529.418L367.912 530.65L369.319 531.793L370.889 532.76L372.501 533.523L374.773 534.271L376.987 534.652L379.318 534.754L381.532 534.593L383.422 534.168L385.196 533.567L386.882 532.76L388.495 531.793L389.961 530.65L391.309 529.359L392.497 527.893L393.523 526.325L394.447 524.434L395.15 522.498L395.576 520.49L395.737 518.437L395.678 516.385L395.356 514.333L394.769 512.339L394.124 510.712L394.168 509.641L428.286 450.876ZM256.731 469.005C247.478 470.799 244.64 471.531 234.07 473.995L234.273 534.813L256.673 534.754L256.731 469.005ZM379.64 510.008L380.989 510.126L382.44 510.609L382.719 510.712L383.906 511.415L384.126 511.576L385.035 512.442L385.255 512.662L386.017 513.747L386.12 513.966L386.662 515.154L386.985 516.605L387.043 517.631L386.985 518.716L386.765 519.742L386.399 520.71L385.9 521.634L385.314 522.498L384.61 523.246L383.804 523.848L382.499 524.551L381.092 525.035L380.827 525.094L379.479 525.196L378.072 525.094L377.911 525.035L377.206 524.874L376.503 524.654L374.934 523.744L374.714 523.569L373.747 522.66L373.16 521.956L372.779 521.311L372.134 519.742L372.076 519.464L371.856 518.233L371.856 517.954L371.914 516.605L372.178 515.198L372.559 514.23L373.102 513.366L373.747 512.559L374.451 511.855L375.257 511.211L376.121 510.712L377.045 510.346L378.13 510.067L379.64 510.008Z" fill="url(#LinearGradient_3)" fill-rule="nonzero" opacity="1" stroke="none" vectornator:layerName="TV Bot"></path><path d="M313.451 387.627L311.985 387.686L310.533 387.803L309.126 388.125L307.836 388.449L307.778 388.492L306.267 389.093L304.86 389.797L303.555 390.603L302.324 391.585L301.137 392.656L300.11 393.799L299.128 395.089L298.38 396.438L297.677 397.743L297.192 399.135L296.753 400.542L296.489 402.008L296.328 403.46L296.328 404.985L296.431 406.436L296.65 407.902L297.031 409.354L297.559 410.761L298.16 412.109L298.908 413.458L299.773 414.645L300.755 415.833L301.84 416.859L302.969 417.842L304.098 418.648L305.241 419.292L306.473 419.894L307.778 420.377L309.067 420.758L310.431 421.082L311.779 421.243L312.366 421.243L313.392 421.888L333.97 457.544C340.292 456.879 346.744 456.091 353.133 455.53L329.283 414.44L329.283 413.194L330.368 412.535L428.106 412.535L429.19 413.194L429.19 414.44L407.562 451.379C414.402 451.098 421.437 451.03 428.336 450.868L445.008 421.888L446.035 421.243L447.34 421.184L449.114 420.92L450.902 420.48L452.632 419.777L454.42 418.868L456.092 417.724L457.602 416.376L458.95 414.865L460.035 413.297L460.959 411.626L461.662 409.837L462.19 408.005L462.469 406.114L462.571 404.222L462.41 402.332L462.088 400.44L461.545 398.652L460.842 396.98L459.933 395.412L458.848 393.902L457.66 392.553L456.312 391.365L454.801 390.28L453.233 389.357L451.987 388.83L450.741 388.39L449.451 388.009L448.146 387.803L446.797 387.686L445.449 387.627L444.144 387.686L442.795 387.906L441.226 388.229L439.717 388.712L438.309 389.357L436.916 390.119L435.612 390.984L434.365 392.011L433.295 393.139L432.753 393.799L431.771 394.283L327.114 394.283L326.146 393.843L325.223 392.714L323.83 391.468L322.305 390.339L320.693 389.416L318.963 388.668L317.174 388.125L315.283 387.744L313.451 387.627ZM287.458 393.902L202.739 393.96L202.68 394.166L202.739 411.406L202.959 411.464L232.762 411.406L233.612 411.875L234.067 412.71L234.07 474.002C242.823 472.201 247.794 470.597 256.731 469.005L256.731 412.71L257.113 411.787L257.977 411.406L287.62 411.406L287.678 411.406L287.737 411.186L287.678 393.96L287.458 393.902ZM312.747 396.174L314.095 396.174L315.4 396.394L316.632 396.878L316.852 396.98L318.156 397.787L318.362 398.006L319.344 398.974L319.506 399.194L320.253 400.279L320.575 401.085L320.854 401.892L321.015 402.712L321.074 403.46L320.913 405.248L320.854 405.513L320.473 406.759L320.048 407.58L319.608 408.268L318.743 409.192L317.716 410.057L316.529 410.702L315.283 411.142L313.876 411.406L312.366 411.347L312.16 411.303L310.959 411.024L309.609 410.482L309.346 410.38L308.159 409.515L307.997 409.354L307.073 408.327L306.912 408.166L306.208 406.979L306.106 406.759L305.725 405.468L305.505 404.222L305.564 402.815L305.827 401.466L306.37 400.22L306.531 399.956L307.396 398.769L307.558 398.607L308.584 397.684L308.804 397.523L309.991 396.878L310.211 396.76L311.501 396.335L312.747 396.174ZM445.83 396.174L447.12 396.174L448.366 396.438L449.612 396.878L451.019 397.743L451.987 398.652L452.852 399.839L453.497 401.202L453.878 402.595L453.937 404.002L453.775 405.351L453.335 406.714L453.233 406.979L452.529 408.225L452.368 408.386L451.503 409.354L451.283 409.515L450.257 410.321L450.037 410.438L448.85 410.981L447.604 411.303L446.093 411.406L444.643 411.244L444.423 411.142L443.118 410.702L442.912 410.6L441.827 409.954L440.802 409.03L440.581 408.81L439.775 407.682L439.174 406.436L438.808 405.028L438.69 403.578L438.852 402.112L439.336 400.704L439.775 399.839L440.259 399.135L440.86 398.491L441.505 397.904L442.209 397.361L442.957 396.921L443.719 396.599L444.686 396.335L445.83 396.174Z" fill="url(#LinearGradient_4)" fill-rule="nonzero" opacity="1" stroke="none" vectornator:layerName="TV Top"></path></g><g opacity="1" vectornator:layerName="GN"><path d="M493.948 452.086L493.998 906.2C520.91 903.546 547.246 897.931 572.3 890.161L572.325 457.904C546.471 455.008 520.333 453.058 493.948 452.086ZM619.119 464.175L737.692 789.117C803.392 721.557 846.099 629.631 850.42 528.877C824.012 518.067 797.08 508.269 769.652 499.611C769.812 503.725 769.93 507.848 769.93 512.002C769.93 549.951 766.469 576.346 754.163 610.024C754.163 610.024 726.205 532.677 707.999 482.258C678.828 474.994 649.192 468.927 619.119 464.175ZM140.094 499.586C112.644 508.25 85.7037 518.058 59.2734 528.877C67.5947 727.273 221.852 887.894 417.51 906.2L417.46 554.54L340.065 554.54L339.41 805.059C222.544 759.007 139.792 645.228 139.791 512.002C139.791 507.838 139.933 503.711 140.094 499.586Z" fill="url(#LinearGradient_5)" fill-rule="nonzero" opacity="1" stroke="none" vectornator:layerName="GN Bot"></path><path d="M417.51 117.8C216.331 136.626 58.8704 305.901 58.8704 512.002C58.8704 517.658 59.0386 523.279 59.2734 528.877C85.7037 518.058 112.644 508.25 140.094 499.586C146.138 343.879 265.16 217.234 417.51 199.225L417.51 117.8ZM493.923 118.43L493.948 452.086C520.333 453.058 546.471 455.009 572.325 457.904L572.325 335.906L619.119 464.175C649.192 468.927 678.828 474.994 707.999 482.258C658.894 346.27 583.605 137.683 583.507 137.647C536.997 120.627 493.923 118.43 493.923 118.43ZM702.055 202.776L702.055 316.815C742.13 367.456 766.977 430.667 769.652 499.611C797.08 508.269 824.012 518.067 850.42 528.877C850.662 523.274 850.847 517.656 850.847 512.002C850.847 386.842 792.717 275.334 702.055 202.776Z" fill="url(#LinearGradient_6)" fill-rule="nonzero" opacity="1" stroke="none" vectornator:layerName="GN Top"></path></g></g></g></svg>