<svg xmlns="http://www.w3.org/2000/svg" xmlns:xlink="http://www.w3.org/1999/xlink" width="18" height="20" viewBox="0 0 18 20">
  <defs>
    <clipPath id="clip-path">
      <rect id="Rectangle_29" data-name="Rectangle 29" width="18" height="20" transform="translate(-1612 1082)" fill="#fff" stroke="#707070" stroke-width="1"/>
    </clipPath>
  </defs>
  <g id="RIMS__icon" data-name="RIMS _icon" transform="translate(1612 -1082)" clip-path="url(#clip-path)">
    <path id="Path_23" data-name="Path 23" d="M16,7a9,9,0,1,0,9,9A9.01,9.01,0,0,0,16,7Zm8.28,9a8.267,8.267,0,0,1-.229,1.929l-3.814-1.091a4.27,4.27,0,0,0,0-1.675l3.814-1.091A8.248,8.248,0,0,1,24.28,16ZM7.72,16a8.267,8.267,0,0,1,.229-1.929l3.814,1.091a4.27,4.27,0,0,0,0,1.675L7.949,17.929A8.248,8.248,0,0,1,7.72,16Zm5.44-3.247L10.308,10a8.278,8.278,0,0,1,3.337-1.932l.963,3.851A4.315,4.315,0,0,0,13.16,12.753Zm-.5.515a4.323,4.323,0,0,0-.692,1.2L8.148,13.379a8.284,8.284,0,0,1,1.659-2.867Zm-.692,4.261a4.318,4.318,0,0,0,.692,1.2l-2.85,2.756a8.278,8.278,0,0,1-1.659-2.867Zm1.195,1.718a4.31,4.31,0,0,0,1.448.838l-.963,3.851A8.282,8.282,0,0,1,10.307,22ZM12.4,16A3.6,3.6,0,1,1,16,19.6,3.6,3.6,0,0,1,12.4,16Zm6.943-2.732,2.85-2.756a8.278,8.278,0,0,1,1.659,2.867l-3.817,1.092A4.322,4.322,0,0,0,19.343,13.268Zm-.5-.515a4.31,4.31,0,0,0-1.448-.838l.963-3.851A8.282,8.282,0,0,1,21.693,10Zm0,6.494L21.692,22a8.278,8.278,0,0,1-3.337,1.932l-.963-3.851A4.315,4.315,0,0,0,18.84,19.247Zm.5-.515a4.323,4.323,0,0,0,.692-1.2l3.817,1.092a8.284,8.284,0,0,1-1.659,2.867ZM17.657,7.887l-.964,3.854a3.974,3.974,0,0,0-1.387,0l-.964-3.854a8.306,8.306,0,0,1,3.315,0ZM14.343,24.113l.964-3.854a3.974,3.974,0,0,0,1.387,0l.964,3.854a8.315,8.315,0,0,1-3.315,0Z" transform="translate(-1619 1076)" fill="gray"/>
  </g>
</svg>
