<svg id="Group_39" data-name="Group 39" xmlns="http://www.w3.org/2000/svg" width="38.208" height="15.787" viewBox="0 0 38.208 15.787">
  <path id="Path_9" data-name="Path 9" d="M63.049,129.485a.319.319,0,1,0,.319.319A.319.319,0,0,0,63.049,129.485Zm-.454-.642c.031-.015.063-.028.1-.04v-1.1a2.116,2.116,0,0,0-.871.361Zm.454,1.547a.135.135,0,1,0,.135.135A.135.135,0,0,0,63.049,130.39Zm.358.415v1.1a2.116,2.116,0,0,0,.871-.361l-.774-.774C63.472,130.78,63.44,130.793,63.407,130.8Zm.643-.643c-.012.033-.025.065-.04.1l.774.774a2.115,2.115,0,0,0,.361-.871Zm-1-3.84a3.482,3.482,0,1,0,3.482,3.482A3.482,3.482,0,0,0,63.049,126.322Zm0,5.969a2.487,2.487,0,1,1,2.487-2.487A2.487,2.487,0,0,1,63.049,132.291Zm.586-2.487a.135.135,0,1,0,.135-.135A.135.135,0,0,0,63.635,129.8Zm-.586-.586a.135.135,0,1,0-.135-.135A.135.135,0,0,0,63.049,129.217Zm1.229-1.149a2.115,2.115,0,0,0-.871-.361v1.1c.033.012.065.025.1.04Zm-2.19,1.281-.774-.774a2.115,2.115,0,0,0-.361.871h1.1C62.06,129.413,62.073,129.38,62.088,129.349Zm-.04.813h-1.1a2.115,2.115,0,0,0,.361.871l.774-.774C62.073,130.227,62.059,130.195,62.048,130.162Zm-.228,1.377a2.115,2.115,0,0,0,.871.361v-1.1c-.033-.012-.065-.025-.1-.04Zm.643-1.736a.135.135,0,1,0-.135.135A.135.135,0,0,0,62.463,129.8Zm1.587-.358h1.1a2.115,2.115,0,0,0-.361-.871l-.774.774C64.025,129.38,64.038,129.413,64.05,129.445Zm24.975-.14a.319.319,0,1,0,.319.319A.319.319,0,0,0,89.025,129.306Zm.358,1.32v1.1a2.115,2.115,0,0,0,.87-.361l-.774-.774A1.029,1.029,0,0,1,89.384,130.626Zm-.358-.415a.135.135,0,1,0,.135.135A.135.135,0,0,0,89.025,130.211Zm6.456-2.047c.168-1.052-.006-1.143-.7-2.694a2.342,2.342,0,0,0-1.093-.9c-2.113-1.153-7.389-1.867-7.731-1.874a34.748,34.748,0,0,0-5.192-4.69,6.034,6.034,0,0,0-1.993-.347s-12.738-.488-15.775.234a2.525,2.525,0,0,0-.664.156,9.716,9.716,0,0,0-.7.742c-.035.069-.242.295-.312.391a21.969,21.969,0,0,0-1.445,1.952c-.176.3-.258.594-.43.9s-.765.517-.859,1.054c-.045.258-.338.161-.351.547a1.578,1.578,0,0,0,.312.117,18.437,18.437,0,0,0-.391,2.538h0c0,.019,0,.018,0,0-.735.231-.666,1.551-.735,1.311.088.351.332.809.424,1.187.079.324-.183.462-.2.781.057.033.112.383.156.429.186.511,1.639.974,1.639.974h.144a3.656,3.656,0,1,1,6.928.009L85.639,131a3.656,3.656,0,1,1,6.769.008h.3s2.245.209,2.538-.508a3.031,3.031,0,0,0,.156-1.21c0-.407.087-.329.2-.586S95.442,128.277,95.481,128.163Zm-25.537-6.091c-.072.05-.067.077-.156.117-.284.216-3.061-.078-6.833-.078.064.092-.442.013-.039-.859a11.348,11.348,0,0,1,1.336-2.032,50.117,50.117,0,0,1,5.693-.077C69.912,120.081,69.925,120.588,69.944,122.072Zm11.285.9c-.058-.083-.241-.188-.273-.273s.061-.292,0-.43a1.4,1.4,0,0,0-1.289-.625c-.134.155-.337.225-.43.429a4.9,4.9,0,0,0-.117.625c.019.084.067.1.079.143.1,0,.052.015,0,.052a.1.1,0,0,0,0-.052c-.282-.011-1.738.036-7.576-.26-.162-3.073-.307-3.174.039-3.67,3.417,0,7.029-.039,7.029-.039s2.57,3.137,3.358,4.139A3.094,3.094,0,0,1,81.229,122.97Zm2.46-.312c-1.268-1.017-2.942-3.211-3.749-3.866-.273,0,.64-.016,1.132-.117a44.594,44.594,0,0,1,4.327,4C84.767,122.7,84.226,123.088,83.689,122.658Zm5.337,3.485a3.482,3.482,0,1,0,3.482,3.482A3.482,3.482,0,0,0,89.025,126.142Zm0,5.969a2.487,2.487,0,1,1,2.487-2.487A2.487,2.487,0,0,1,89.025,132.112Zm.961-2.033.774.774a2.115,2.115,0,0,0,.361-.871h-1.1C90.015,130.016,90,130.048,89.987,130.079Zm.04-.813h1.1a2.116,2.116,0,0,0-.361-.871l-.774.774C90,129.2,90.015,129.233,90.027,129.266Zm-1.456-.6c.031-.015.063-.028.1-.04v-1.1a2.117,2.117,0,0,0-.871.361Zm-.132.961a.135.135,0,1,0-.135.135A.135.135,0,0,0,88.439,129.625Zm.586-.586a.135.135,0,1,0-.135-.135A.135.135,0,0,0,89.025,129.038Zm1.229-1.149a2.115,2.115,0,0,0-.871-.361v1.1c.033.012.065.025.1.04Zm-.643,1.736a.135.135,0,1,0,.135-.135A.135.135,0,0,0,89.612,129.625Zm-1.548-.455-.774-.774a2.115,2.115,0,0,0-.361.871h1.1Q88.042,129.217,88.064,129.17Zm-.268,2.19a2.115,2.115,0,0,0,.871.361v-1.1c-.033-.012-.065-.025-.1-.04Zm.228-1.377h-1.1a2.115,2.115,0,0,0,.361.871l.774-.774C88.049,130.048,88.036,130.016,88.024,129.983Z" transform="translate(-57.416 -117.498)" fill="#323232"/>
</svg>
