<svg xmlns="http://www.w3.org/2000/svg" xmlns:xlink="http://www.w3.org/1999/xlink" width="18" height="20" viewBox="0 0 18 20">
  <defs>
    <clipPath id="clip-path">
      <rect id="Rectangle_27" data-name="Rectangle 27" width="18" height="20" transform="translate(-1924 1319)" fill="none" stroke="gray" stroke-width="1"/>
    </clipPath>
  </defs>
  <g id="Vehicles_icon" transform="translate(1924 -1319)" clip-path="url(#clip-path)">
    <g id="Group_41" data-name="Group 41" transform="translate(-98.308 166.643)">
      <line id="Line_10" data-name="Line 10" x2="16.625" transform="translate(-1825.004 1161.272)" fill="none" stroke="gray" stroke-linecap="round" stroke-linejoin="round" stroke-width="1"/>
      <path id="Path_16" data-name="Path 16" d="M186.969,184v1.781a.594.594,0,0,1-.594.594h-1.781a.594.594,0,0,1-.594-.594V184" transform="translate(-1996.536 982.093)" fill="none" stroke="gray" stroke-linecap="round" stroke-linejoin="round" stroke-width="1"/>
      <path id="Path_17" data-name="Path 17" d="M34.968,184v1.781a.594.594,0,0,1-.594.594H32.594a.594.594,0,0,1-.594-.594V184" transform="translate(-1855.816 982.093)" fill="none" stroke="gray" stroke-linecap="round" stroke-linejoin="round" stroke-width="1"/>
      <line id="Line_11" data-name="Line 11" x2="1.241" transform="translate(-1821.53 1163.753)" fill="none" stroke="gray" stroke-linecap="round" stroke-linejoin="round" stroke-width="1"/>
      <line id="Line_12" data-name="Line 12" x2="1.241" transform="translate(-1813.094 1163.753)" fill="none" stroke="gray" stroke-linecap="round" stroke-linejoin="round" stroke-width="1"/>
      <path id="Path_18" data-name="Path 18" d="M46.249,53.343,44.03,48.356A.594.594,0,0,0,43.488,48H34.761a.594.594,0,0,0-.542.356L32,53.343v4.75H46.249Z" transform="translate(-1855.816 1108)" fill="none" stroke="gray" stroke-linecap="round" stroke-linejoin="round" stroke-width="1"/>
    </g>
  </g>
</svg>
